<svg id="visual" viewBox="0 0 900 600" width="900" height="600" xmlns="http://www.w3.org/2000/svg" xmlns:xlink="http://www.w3.org/1999/xlink" version="1.1"><rect width="900" height="600" fill="#e9ddd8"></rect><g><g transform="translate(287 270)"><path d="M95.3 2.1C95.3 49.7 47.7 99.3 2.6 99.3C-42.4 99.3 -84.9 49.7 -84.9 2.1C-84.9 -45.6 -42.4 -91.1 2.6 -91.1C47.7 -91.1 95.3 -45.6 95.3 2.1Z" fill="none" stroke="#53453d" stroke-width="15"></path></g><g transform="translate(820 382)"><path d="M72.2 0.8C72.2 31.9 36.1 63.8 6.2 63.8C-23.8 63.8 -47.6 31.9 -47.6 0.8C-47.6 -30.4 -23.8 -60.7 6.2 -60.7C36.1 -60.7 72.2 -30.4 72.2 0.8Z" fill="none" stroke="#53453d" stroke-width="15"></path></g><g transform="translate(809 30)"><path d="M74.5 -0.3C74.5 25.5 37.2 51.1 4.9 51.1C-27.4 51.1 -54.8 25.5 -54.8 -0.3C-54.8 -26.1 -27.4 -52.2 4.9 -52.2C37.2 -52.2 74.5 -26.1 74.5 -0.3Z" stroke="#53453d" fill="none" stroke-width="15"></path></g><g transform="translate(38 581)"><path d="M52.2 0.3C52.2 33.7 26.1 67.3 0.4 67.3C-25.2 67.3 -50.4 33.7 -50.4 0.3C-50.4 -33.1 -25.2 -66.1 0.4 -66.1C26.1 -66.1 52.2 -33.1 52.2 0.3Z" stroke="#53453d" fill="none" stroke-width="15"></path></g><g transform="translate(23 6)"><path d="M80.1 1.6C80.1 40.2 40 80.4 0.6 80.4C-38.9 80.4 -77.9 40.2 -77.9 1.6C-77.9 -37 -38.9 -74.1 0.6 -74.1C40 -74.1 80.1 -37 80.1 1.6Z" stroke="#53453d" fill="none" stroke-width="15"></path></g><g transform="translate(462 554)"><path d="M31.3 -1C31.3 17.4 15.7 34.7 -0.2 34.7C-16.1 34.7 -32.2 17.4 -32.2 -1C-32.2 -19.5 -16.1 -38.9 -0.2 -38.9C15.7 -38.9 31.3 -19.5 31.3 -1Z" stroke="#53453d" fill="none" stroke-width="15"></path></g></g></svg>