<svg id="visual" viewBox="0 0 900 600" width="900" height="600" xmlns="http://www.w3.org/2000/svg" xmlns:xlink="http://www.w3.org/1999/xlink" version="1.1"><rect width="900" height="600" fill="#e9ddd8"></rect><g><g transform="translate(38 12)"><path d="M71.9 -4.5C71.9 35.5 35.9 71.1 -1.6 71.1C-39.2 71.1 -78.5 35.5 -78.5 -4.5C-78.5 -44.5 -39.2 -88.9 -1.6 -88.9C35.9 -88.9 71.9 -44.5 71.9 -4.5Z" fill="none" stroke="#53453d" stroke-width="15"></path></g><g transform="translate(796 277)"><path d="M77.5 -5.5C77.5 27.5 38.8 54.9 2.9 54.9C-32.9 54.9 -65.9 27.5 -65.9 -5.5C-65.9 -38.4 -32.9 -76.9 2.9 -76.9C38.8 -76.9 77.5 -38.4 77.5 -5.5Z" fill="none" stroke="#53453d" stroke-width="15"></path></g><g transform="translate(494 421)"><path d="M76.1 -3.8C76.1 34.3 38.1 68.7 -0.7 68.7C-39.4 68.7 -78.8 34.3 -78.8 -3.8C-78.8 -42 -39.4 -84 -0.7 -84C38.1 -84 76.1 -42 76.1 -3.8Z" stroke="#53453d" fill="none" stroke-width="15"></path></g><g transform="translate(534 44)"><path d="M65 -2.7C65 22.2 32.5 44.3 0.4 44.3C-31.8 44.3 -63.5 22.2 -63.5 -2.7C-63.5 -27.5 -31.8 -55 0.4 -55C32.5 -55 65 -27.5 65 -2.7Z" stroke="#53453d" fill="none" stroke-width="15"></path></g><g transform="translate(74 504)"><path d="M39.5 0.3C39.5 17.4 19.8 34.7 1.4 34.7C-16.9 34.7 -33.8 17.4 -33.8 0.3C-33.8 -16.7 -16.9 -33.3 1.4 -33.3C19.8 -33.3 39.5 -16.7 39.5 0.3Z" stroke="#53453d" fill="none" stroke-width="15"></path></g><g transform="translate(876 598)"><path d="M77.9 -0.6C77.9 31.3 38.9 62.6 2.2 62.6C-34.6 62.6 -69.2 31.3 -69.2 -0.6C-69.2 -32.6 -34.6 -65.2 2.2 -65.2C38.9 -65.2 77.9 -32.6 77.9 -0.6Z" stroke="#53453d" fill="none" stroke-width="15"></path></g></g></svg>