<svg id="visual" viewBox="0 0 900 600" width="900" height="600" xmlns="http://www.w3.org/2000/svg" xmlns:xlink="http://www.w3.org/1999/xlink" version="1.1"><rect width="900" height="600" fill="#e9ddd8"></rect><g><g transform="translate(874 530)"><path d="M90 4.7C90 41.6 45 83.1 -1.2 83.1C-47.3 83.1 -94.6 41.6 -94.6 4.7C-94.6 -32.2 -47.3 -64.4 -1.2 -64.4C45 -64.4 90 -32.2 90 4.7Z" fill="none" stroke="#53453d" stroke-width="15"></path></g><g transform="translate(748 168)"><path d="M54.2 -3.4C54.2 25.1 27.1 50.2 1 50.2C-25.2 50.2 -50.4 25.1 -50.4 -3.4C-50.4 -31.9 -25.2 -63.9 1 -63.9C27.1 -63.9 54.2 -31.9 54.2 -3.4Z" fill="none" stroke="#53453d" stroke-width="15"></path></g><g transform="translate(421 15)"><path d="M46 1.4C46 27.9 23 55.7 0 55.7C-23.1 55.7 -46.2 27.9 -46.2 1.4C-46.2 -25.2 -23.1 -50.3 0 -50.3C23 -50.3 46 -25.2 46 1.4Z" stroke="#53453d" fill="none" stroke-width="15"></path></g><g transform="translate(137 223)"><path d="M64.2 3.5C64.2 32.8 32.1 65.7 -0.8 65.7C-33.8 65.7 -67.5 32.8 -67.5 3.5C-67.5 -25.9 -33.8 -51.8 -0.8 -51.8C32.1 -51.8 64.2 -25.9 64.2 3.5Z" stroke="#53453d" fill="none" stroke-width="15"></path></g><g transform="translate(271 580)"><path d="M58.2 -0.6C58.2 34.9 29.1 69.9 -2.5 69.9C-34 69.9 -68 34.9 -68 -0.6C-68 -36.2 -34 -72.3 -2.5 -72.3C29.1 -72.3 58.2 -36.2 58.2 -0.6Z" stroke="#53453d" fill="none" stroke-width="15"></path></g><g transform="translate(523 378)"><path d="M35.5 1.7C35.5 22.1 17.7 44.2 -4.8 44.2C-27.3 44.2 -54.6 22.1 -54.6 1.7C-54.6 -18.8 -27.3 -37.5 -4.8 -37.5C17.7 -37.5 35.5 -18.8 35.5 1.7Z" stroke="#53453d" fill="none" stroke-width="15"></path></g></g></svg>