<svg id="visual" viewBox="0 0 900 600" width="900" height="600" xmlns="http://www.w3.org/2000/svg" xmlns:xlink="http://www.w3.org/1999/xlink" version="1.1"><rect width="900" height="600" fill="#e9ddd8"></rect><g><g transform="translate(458 104)"><path d="M101.5 -3.5C101.5 35.6 50.8 71.3 1.8 71.3C-47.1 71.3 -94.3 35.6 -94.3 -3.5C-94.3 -42.6 -47.1 -85.3 1.8 -85.3C50.8 -85.3 101.5 -42.6 101.5 -3.5Z" fill="none" stroke="#53453d" stroke-width="15"></path></g><g transform="translate(718 296)"><path d="M21.7 -1C21.7 10.8 10.8 21.6 -0.3 21.6C-11.3 21.6 -22.7 10.8 -22.7 -1C-22.7 -12.8 -11.3 -25.7 -0.3 -25.7C10.8 -25.7 21.7 -12.8 21.7 -1Z" fill="none" stroke="#53453d" stroke-width="15"></path></g><g transform="translate(95 506)"><path d="M81.5 -5.1C81.5 31.9 40.8 63.8 -0.7 63.8C-42.3 63.8 -84.5 31.9 -84.5 -5.1C-84.5 -42 -42.3 -84.1 -0.7 -84.1C40.8 -84.1 81.5 -42 81.5 -5.1Z" stroke="#53453d" fill="none" stroke-width="15"></path></g><g transform="translate(499 555)"><path d="M28.2 -0.6C28.2 11.2 14.1 22.4 0.3 22.4C-13.5 22.4 -27 11.2 -27 -0.6C-27 -12.3 -13.5 -24.6 0.3 -24.6C14.1 -24.6 28.2 -12.3 28.2 -0.6Z" stroke="#53453d" fill="none" stroke-width="15"></path></g><g transform="translate(23 142)"><path d="M56.1 -3.1C56.1 29.3 28.1 58.5 -1.2 58.5C-30.5 58.5 -61 29.3 -61 -3.1C-61 -35.5 -30.5 -71.1 -1.2 -71.1C28.1 -71.1 56.1 -35.5 56.1 -3.1Z" stroke="#53453d" fill="none" stroke-width="15"></path></g><g transform="translate(891 558)"><path d="M57.8 4C57.8 28.5 28.9 57 0.2 57C-28.4 57 -56.9 28.5 -56.9 4C-56.9 -20.4 -28.4 -40.8 0.2 -40.8C28.9 -40.8 57.8 -20.4 57.8 4Z" stroke="#53453d" fill="none" stroke-width="15"></path></g></g></svg>